# xmcd CD database file
#
# Track frame offsets:
#	150
#	14752
#	25791
#	37196
#	51210
#	63562
#	78794
#	94126
#	107988
#	122620
#	133232
#	138749
#	150919
#	164808
#	179825
#	191510
#	202229
#	214354
#	231916
#	250073
#
# Disc length: 3490 seconds
#
# Revision: 0
# Processed by: cddbd v1.5PL3 Copyright (c) Steve Scherf et al.
# Submitted via: CDex 1.51
#
DISCID=340da014
DTITLE=KENROCKS PRESENTS - LONDON NITE 01 ~ALL-TIME REAL GREATEST HIS~
DYEAR=1900
DGENRE=Rhythmic Soul
TTITLE0=Everybody's Happy Nowadays(BUZZCOCKS)
TTITLE1=G.L.C.(MENACE)
TTITLE2=Someone’s Gonna Die(BLITZ)
TTITLE3=Born To Lose(JOHNNY THUNDERS&THE HEARTBREAKERS)
TTITLE4=I Love Rock’N’Roll(THE RATMEN)
TTITLE5=She Goes To Finos(RON RON CLOU)
TTITLE6=シェリーにくちづけ(I?KISS&KIDS MIX)(pizzicato five)
TTITLE7=Take On Me(REEL BIG FISH)
TTITLE8=Summer Fun(THE BARRACUDAS)
TTITLE9=Windy(THE DECiBELS)
TTITLE10=聖者の行進(PHILIPS)
TTITLE11=Just Can’t Get Enough(THE WANNADIES)
TTITLE12=you&me(advantage Lucy)
TTITLE13=I Wanna Be Your Boyfriend(THE RUBINOOS)
TTITLE14=Omae Ni Muchusa(HIPPY HIPPY SHAKES)
TTITLE15=Little Shimmy Brown(THE STRIKES)
TTITLE16=Cowpunk Medlum(SPLODGENESSABOUNDS)
TTITLE17=Drunken Lullabies(FLOGGING MOLLY)
TTITLE18=Last Gamble Go Billy(THE TEARDROPS)
TTITLE19=Breakaway(TRACEY ULLMAN)
EXTD=
EXTT0=
EXTT1=
EXTT2=
EXTT3=
EXTT4=
EXTT5=
EXTT6=
EXTT7=
EXTT8=
EXTT9=
EXTT10=
EXTT11=
EXTT12=
EXTT13=
EXTT14=
EXTT15=
EXTT16=
EXTT17=
EXTT18=
EXTT19=
PLAYORDER=
